<?xml version="1.0" standalone="no"?>
<!DOCTYPE svg PUBLIC "-//W3C//DTD SVG 20010904//EN"
 "http://www.w3.org/TR/2001/REC-SVG-20010904/DTD/svg10.dtd">
<svg version="1.0" xmlns="http://www.w3.org/2000/svg"
 width="170.000000pt" height="170.000000pt" viewBox="0 0 170.000000 170.000000"
 preserveAspectRatio="xMidYMid meet">
<metadata>
Created by potrace 1.11, written by Peter Selinger 2001-2013
</metadata>
<g transform="translate(0.000000,170.000000) scale(0.100000,-0.100000)"
fill="#000000" stroke="none">
<path d="M720 1391 c-88 -59 -141 -202 -98 -270 9 -15 7 -23 -16 -47 -65 -70
-175 -258 -199 -342 -17 -60 -16 -94 7 -165 18 -55 60 -106 111 -134 21 -12
12 -33 -15 -33 -34 0 -81 -52 -89 -97 -8 -43 -3 -60 34 -104 24 -30 25 -90 1
-160 l-14 -39 374 0 374 0 1 33 1 32 14 -32 c14 -32 15 -33 80 -33 36 0 64 3
62 8 -2 4 -15 32 -29 62 -41 87 -44 121 -14 166 52 76 18 169 -77 209 -21 8
-40 15 -43 15 -18 0 -18 2 -3 11 10 5 28 31 39 57 32 70 33 182 3 272 -3 8 -5
16 -4 18 0 1 -14 31 -31 65 -62 118 -193 260 -267 288 -19 7 -22 14 -16 32 12
35 11 98 0 132 -29 81 -111 107 -186 56z"/>
</g>
</svg>
